#!OML:ASF H:\Terrain\Patient Classification 1\Terrain2\Thursday\justin.ASF
:FULLY-SPECIFIED
:DEGREES
1433
root 4.62162 17.2295 -22.019 -366.83 -81.4719 4.29259
lowerback 5.75012 0.980736 -1.16779
upperback 3.0068 1.19595 2.29895
thorax -0.201737 0.541652 2.95096
lowerneck -13.9522 -0.103352 -8.48181
upperneck 37.8499 0.575046 1.47226
head 15.7009 -1.22602 2.11208
rclavicle 1.02374e-014 1.90833e-014
rhumerus -31.6042 -16.165 -77.1473
rradius 20.9984
rwrist -5.60489
rhand -20.7474 11.0157
rfingers 7.12502
rthumb 5.61822 -18.8898
lclavicle 1.02374e-014 1.90833e-014
lhumerus -39.013 10.1669 81.6164
lradius 22.6481
lwrist -4.95663
lhand -23.5469 24.8004
lfingers 7.12502
lthumb 2.91494 54.7602
rfemur -20.7698 -4.90791 18.4115
rtibia 27.5244
rfoot -1.23107 6.49718
rtoes 15.1175
lfemur 13.839 -4.23305 -17.0613
ltibia 26.2727
lfoot 3.06318 -15.3458
ltoes 10.022
1434
root 4.51132 17.2497 -22.0405 -365.459 -81.4469 3.13066
lowerback 5.603 0.963237 -1.0035
upperback 2.95205 1.18227 2.46639
thorax -0.175643 0.535503 3.03378
lowerneck -13.4217 0.0671855 -8.24804
upperneck 36.9735 0.916946 1.01784
head 15.1253 -1.0602 1.92332
rclavicle -7.95139e-016 2.06736e-014
rhumerus -31.4117 -16.2268 -76.9905
rradius 20.904
rwrist -5.24331
rhand -20.4002 11.2036
rfingers 7.12502
rthumb 5.95346 -18.6927
lclavicle -7.95139e-016 2.06736e-014
lhumerus -39.4423 10.3744 81.8717
lradius 22.7834
lwrist -4.91998
lhand -23.4578 25.1965
lfingers 7.12502
lthumb 3.00099 55.1552
rfemur -20.5325 -5.58142 18.8941
rtibia 27.2781
rfoot -1.55332 7.13668
rtoes 12.1348
lfemur 12.7987 -3.98123 -16.5629
ltibia 27.9501
lfoot 4.51453 -15.585
ltoes 8.3694
1435
root 4.40306 17.2779 -22.0629 -363.716 -81.3346 1.52564
lowerback 5.62897 1.00688 -0.611899
upperback 2.86126 1.2621 2.47491
thorax -0.280478 0.581361 2.81573
lowerneck -13.6545 -0.156281 -7.82428
upperneck 37.147 0.667644 0.501031
head 15.2894 -1.18585 1.59125
rclavicle 1.43125e-014 -2.54444e-014
rhumerus -31.4563 -16.676 -76.8289
rradius 20.9749
rwrist -4.67848
rhand -19.8151 11.3462
rfingers 7.12502
rthumb 6.51833 -18.5335
lclavicle 1.43125e-014 -2.54444e-014
lhumerus -39.792 10.0965 82.0336
lradius 22.9244
lwrist -4.54711
lhand -16.6803 22.4856
lfingers 7.12502
lthumb 9.54379 52.2494
rfemur -20.1847 -6.07785 19.3364
rtibia 27.0223
rfoot -1.77629 7.54663
rtoes 12.5849
lfemur 11.7858 -3.99263 -16.0613
ltibia 29.5949
lfoot 6.33223 -15.4683
ltoes 8.34543
1436
root 4.29494 17.3043 -22.0831 -362.699 -81.2716 0.522768
lowerback 5.77799 1.06504 -0.320927
upperback 2.77371 1.35758 2.47073
thorax -0.451866 0.63386 2.63836
lowerneck -13.5761 -0.0781023 -8.1004
upperneck 37.1918 0.624086 1.14026
head 15.2835 -1.15497 1.90494
rclavicle 3.18055e-015 3.65764e-014
rhumerus -31.4837 -16.4829 -76.9117
rradius 21.1323
rwrist -4.43633
rhand -19.1854 11.1706
rfingers 7.12502
rthumb 7.12622 -18.6894
lclavicle 3.18055e-015 3.65764e-014
lhumerus -40.2521 9.5554 82.3904
lradius 23.2128
lwrist -3.59551
lhand -17.1766 22.7388
lfingers 7.12502
lthumb 9.0649 52.524
rfemur -19.672 -6.43333 19.6125
rtibia 26.7422
rfoot -2.04813 7.67696
rtoes 14.3028
lfemur 10.8983 -3.95988 -15.6728
ltibia 31.2033
lfoot 8.53895 -15.2141
ltoes 11.3568
1437
root 4.19151 17.3359 -22.1001 -360.477 -81.1815 -1.59056
lowerback 5.83598 1.02152 0.173203
upperback 2.67401 1.32806 2.5481
thorax -0.57589 0.623346 2.43995
lowerneck -13.4565 0.13022 -8.36477
upperneck 37.0296 0.834309 1.63485
head 15.1518 -1.02397 2.19405
rclavicle 1.11319e-014 5.56597e-015
rhumerus -31.3695 -15.7855 -77.1725
rradius 21.3542
rwrist -4.78629
rhand -18.7189 10.9977
rfingers 7.12502
rthumb 7.57643 -18.8466
lclavicle 1.11319e-014 5.56597e-015
lhumerus -40.6121 9.11513 82.7592
lradius 23.4478
lwrist -2.71792
lhand -16.9361 22.6937
lfingers 7.12502
lthumb 9.29697 52.4687
rfemur -19.2259 -6.61634 20.0526
rtibia 26.4045
rfoot -2.32268 7.61917
rtoes 15.3209
lfemur 9.82711 -3.77042 -15.0771
ltibia 32.8316
lfoot 10.4611 -15.3518
ltoes 11.6626
1438
root 4.0904 17.3662 -22.1201 -358.906 -81.029 -2.99033
lowerback 5.74512 0.945581 0.611186
upperback 2.68619 1.246 2.56812
thorax -0.500475 0.584253 2.22094
lowerneck -14.5813 -0.0850532 -7.56338
upperneck 37.7757 0.845828 0.381135
head 15.8161 -1.11826 1.53007
rclavicle 1.19271e-014 -1.74931e-014
rhumerus -31.0662 -15.1565 -77.5917
rradius 21.683
rwrist -5.13638
rhand -18.939 10.6236
rfingers 7.12502
rthumb 7.36405 -19.2283
lclavicle 1.19271e-014 -1.74931e-014
lhumerus -40.6648 8.90028 83.0005
lradius 23.6223
lwrist -2.48328
lhand -20.4189 23.9514
lfingers 7.12502
lthumb 5.9354 53.8482
rfemur -18.7647 -6.61949 20.3789
rtibia 25.9326
rfoot -2.4699 7.42361
rtoes 15.896
lfemur 8.61727 -3.58729 -14.594
ltibia 34.5395
lfoot 11.9847 -15.5952
ltoes 10.791
1439
root 3.9908 17.3907 -22.1441 -357.858 -80.8838 -3.86038
lowerback 5.5804 0.970416 0.864346
upperback 2.73651 1.28514 2.6175
thorax -0.353895 0.604283 2.13027
lowerneck -14.6236 -0.0933893 -7.24204
upperneck 37.3597 0.944732 -0.0792149
head 15.6203 -1.06787 1.29392
rclavicle 4.07509e-014 3.97569e-015
rhumerus -30.803 -14.4164 -78.0409
rradius 22.2025
rwrist -5.29513
rhand -19.7023 9.99768
rfingers 7.12502
rthumb 6.62718 -19.8786
lclavicle 4.07509e-014 3.97569e-015
lhumerus -40.718 8.77887 83.3467
lradius 23.9035
lwrist -2.47322
lhand -15.2156 22.7803
lfingers 7.12502
lthumb 10.9568 52.4744
rfemur -18.2357 -6.79743 20.6763
rtibia 25.2516
rfoot -2.52059 7.32815
rtoes 16.3029
lfemur 7.33258 -3.60577 -14.2325
ltibia 36.3699
lfoot 13.4651 -15.3344
ltoes 12.5194
1440
root 3.89476 17.4188 -22.1673 -353.583 -80.5932 -8.04118
lowerback 5.53392 0.981228 1.59062
upperback 2.72484 1.32903 2.8934
thorax -0.330462 0.627605 2.00507
lowerneck -13.8634 0.155728 -7.58009
upperneck 36.3026 1.18596 0.477553
head 14.8989 -0.87227 1.62674
rclavicle -3.32964e-014 -1.74931e-014
rhumerus -30.7138 -13.2471 -78.3573
rradius 22.9044
rwrist -6.15702
rhand -20.1168 9.75891
rfingers 7.12502
rthumb 6.22706 -20.1296
lclavicle -3.32964e-014 -1.74931e-014
lhumerus -40.7955 8.37429 83.992
lradius 24.1271
lwrist -2.20633
lhand -15.644 22.334
lfingers 7.12502
lthumb 10.5436 52.0495
rfemur -17.6419 -7.42604 21.6366
rtibia 24.434
rfoot -2.64773 7.55213
rtoes 15.5187
lfemur 6.04368 -3.80044 -13.2678
ltibia 38.3122
lfoot 14.6164 -15.1954
ltoes 13.7259
1441
root 3.80348 17.4458 -22.1913 -348.44 -80.1799 -13.1479
lowerback 5.61479 0.849949 2.48452
upperback 2.69979 1.19358 3.25439
thorax -0.385535 0.559791 1.88264
lowerneck -14.7098 -0.126015 -7.82271
upperneck 37.0397 0.982239 0.289739
head 15.4761 -1.05873 1.56231
rclavicle 1.96797e-014 -4.77083e-015
rhumerus -30.4833 -11.8733 -78.7086
rradius 23.5002
rwrist -7.40864
rhand -20.5169 9.86752
rfingers 7.12502
rthumb 5.84074 -20.032
lclavicle 1.96797e-014 -4.77083e-015
lhumerus -40.8787 7.82077 84.6733
lradius 24.4336
lwrist -1.59145
lhand -15.148 22.15
lfingers 7.12502
lthumb 11.022 51.8406
rfemur -17.0004 -7.78398 22.7799
rtibia 23.5814
rfoot -2.71802 7.57388
rtoes 14.7773
lfemur 4.75083 -3.70952 -11.9506
ltibia 40.3381
lfoot 15.1558 -15.5601
ltoes 13.9502
1442
root 3.72044 17.4569 -22.2136 -345.438 -79.8055 -16.1261
lowerback 5.8012 0.784598 3.07231
upperback 2.66297 1.14089 3.49856
thorax -0.518226 0.531711 1.80589
lowerneck -14.3305 0.0668103 -7.91104
upperneck 36.3689 1.25303 0.388565
head 15.0415 -0.901896 1.66219
rclavicle -7.05686e-015 -2.70347e-014
rhumerus -30.2464 -11.1954 -78.8322
rradius 23.9593
rwrist -8.13216
rhand -20.7675 10.1326
rfingers 7.12502
rthumb 5.59887 -19.7734
lclavicle -7.05686e-015 -2.70347e-014
lhumerus -40.9644 7.05731 85.3219
lradius 24.8623
lwrist -0.810713
lhand -14.5224 21.7569
lfingers 7.12502
lthumb 11.6254 51.4144
rfemur -16.3491 -7.92214 23.5455
rtibia 22.7222
rfoot -2.67739 7.43589
rtoes 13.5781
lfemur 3.43493 -3.37931 -10.9606
ltibia 42.4303
lfoot 15.1815 -15.8566
ltoes 14.5801
1443
root 3.64342 17.4623 -22.2237 -343.746 -79.4596 -17.8222
lowerback 5.99728 0.833569 3.70659
upperback 2.64376 1.24721 3.57846
thorax -0.634527 0.585012 1.52436
lowerneck -13.6743 0.281332 -7.75011
upperneck 35.5246 1.48043 0.404018
head 14.4754 -0.729201 1.6705
rclavicle 4.80065e-014 3.18055e-015
rhumerus -30.1459 -11.1329 -78.7101
rradius 24.4015
rwrist -8.47963
rhand -20.6884 10.7406
rfingers 7.12502
rthumb 5.67521 -19.1634
lclavicle 4.80065e-014 3.18055e-015
lhumerus -40.8931 6.05283 86.0119
lradius 25.1987
lwrist -0.336887
lhand -14.5886 21.4374
lfingers 7.12502
lthumb 11.5616 51.0985
rfemur -15.7463 -8.3552 24.05
rtibia 22.0074
rfoot -2.63754 7.56115
rtoes 12.7676
lfemur 2.16627 -3.33516 -10.4187
ltibia 44.4949
lfoot 14.5656 -15.8439
ltoes 14.0865
1444
root 3.57016 17.4759 -22.2349 -342.241 -79.1209 -19.242
lowerback 6.13314 0.838643 4.23075
upperback 2.63189 1.2871 3.7116
thorax -0.71203 0.603539 1.36473
lowerneck -13.6073 0.405248 -7.66376
upperneck 35.1878 1.67412 0.350611
head 14.2951 -0.618827 1.66291
rclavicle 4.73108e-014 1.43125e-014
rhumerus -29.9972 -10.4357 -78.7489
rradius 24.9911
rwrist -9.36452
rhand -20.7083 11.4298
rfingers 7.12502
rthumb 5.65601 -18.4747
lclavicle 4.73108e-014 1.43125e-014
lhumerus -40.7437 5.85378 86.4299
lradius 25.438
lwrist -0.87898
lhand -14.897 21.49
lfingers 7.12502
lthumb 11.2641 51.1675
rfemur -15.3267 -8.6819 24.4977
rtibia 21.4537
rfoot -2.53613 7.62822
rtoes 13.7935
lfemur 0.805118 -3.41693 -9.97615
ltibia 46.4639
lfoot 13.2211 -15.609
ltoes 10.7826
1445
root 3.49516 17.4947 -22.2572 -341.059 -78.8225 -20.3446
lowerback 6.31953 0.870601 4.33738
upperback 2.61197 1.34473 4.01633
thorax -0.839942 0.625688 1.61364
lowerneck -14.0377 0.174059 -7.88917
upperneck 35.3725 1.49366 0.232462
head 14.4935 -0.750041 1.62994
rclavicle -2.39536e-014 -1.27222e-014
rhumerus -29.8967 -9.19635 -78.7651
rradius 25.7738
rwrist -10.6998
rhand -20.6916 11.853
rfingers 7.12502
rthumb 5.67214 -18.0511
lclavicle -2.39536e-014 -1.27222e-014
lhumerus -40.6436 5.78616 87.0173
lradius 25.6443
lwrist -1.56217
lhand -14.5476 20.8721
lfingers 7.12502
lthumb 11.601 50.531
rfemur -14.8672 -8.71465 24.8841
rtibia 20.8651
rfoot -2.45234 7.46948
rtoes 15.0242
lfemur -0.443951 -3.19504 -9.48181
ltibia 48.2882
lfoot 11.234 -15.0272
ltoes 5.42755
1446
root 3.41838 17.519 -22.2708 -340.188 -78.6017 -21.2171
lowerback 6.53962 0.953428 4.51305
upperback 2.57125 1.48007 4.23031
thorax -1.00432 0.687646 1.72406
lowerneck -14.0383 0.158792 -7.78306
upperneck 35.3511 1.53443 -0.0188279
head 14.4884 -0.749949 1.51487
rclavicle -1.18277e-014 -7.95139e-015
rhumerus -29.7706 -8.67557 -78.6101
rradius 26.3351
rwrist -11.2356
rhand -20.8592 11.9124
rfingers 7.12502
rthumb 5.51027 -17.996
lclavicle -1.18277e-014 -7.95139e-015
lhumerus -40.6268 5.25458 87.6999
lradius 25.974
lwrist -2.03344
lhand -13.3835 19.7464
lfingers 7.12502
lthumb 12.7235 49.3387
rfemur -14.311 -8.7112 25.1471
rtibia 20.3358
rfoot -2.48583 7.30112
rtoes 15.8669
lfemur -1.4688 -2.94847 -9.17626
ltibia 49.9323
lfoot 9.07259 -13.9947
ltoes 1.63711
1447
root 3.35656 17.5416 -22.2623 -338.855 -78.1138 -22.5258
lowerback 6.77457 0.940719 5.39516
upperback 2.48335 1.53763 4.24703
thorax -1.19993 0.713176 1.2415
lowerneck -13.6435 0.187734 -7.35315
upperneck 34.9136 1.51595 -0.291953
head 14.2032 -0.71156 1.32314
rclavicle 1.05356e-014 -1.27222e-014
rhumerus -29.431 -9.28925 -78.3749
rradius 26.5171
rwrist -10.801
rhand -20.9554 11.8495
rfingers 7.12502
rthumb 5.41742 -18.0613
lclavicle 1.05356e-014 -1.27222e-014
lhumerus -40.4997 4.44513 88.1962
lradius 26.3274
lwrist -2.23211
lhand -12.214 19.4618
lfingers 7.12502
lthumb 13.8508 48.9806
rfemur -13.9288 -9.19957 25.5861
rtibia 19.9403
rfoot -2.51049 7.33558
rtoes 16.4143
lfemur -2.63672 -3.16423 -8.84203
ltibia 51.4768
lfoot 7.46818 -12.5176
ltoes 3.8583
